<?xml version="1.0" encoding="UTF-8"?>
<svg width="13px" height="14px" viewBox="0 0 13 14" version="1.1" xmlns="http://www.w3.org/2000/svg" xmlns:xlink="http://www.w3.org/1999/xlink">
  <g id="V2" stroke="none" stroke-width="1" fill="none" fill-rule="evenodd">
    <g id="V2.2_Historie" transform="translate(-1195.000000, -68.000000)" fill="#fff" fill-rule="nonzero">
      <g id="Icon/pdf-green" transform="translate(1195.000000, 68.000000)">
        <path d="M2.8,0 C2.03402171,0 1.4,0.63402171 1.4,1.4 L1.4,4.9 C0.6265,4.9 1.82076576e-13,5.5265 1.82076576e-13,6.3 L1.82076576e-13,9.8 C1.82076576e-13,10.5735 0.6265,11.2 1.4,11.2 L1.4,12.6 C1.4,13.3659785 2.03402171,14 2.8,14 L11.2,14 C11.9659785,14 12.6,13.3659785 12.6,12.6 L12.6,3.5 L9.1,0 L2.8,0 Z M2.8,1.4 L8.4,1.4 L8.4,4.2 L11.2,4.2 L11.2,4.9 L2.8,4.9 L2.8,1.4 Z M1.4,6.3 L2.45,6.3 C3.0296,6.3 3.5,6.7704 3.5,7.35 C3.5,7.9296 3.0296,8.4 2.45,8.4 L2.1,8.4 L2.1,9.8 L1.4,9.8 L1.4,6.3 Z M7.7,6.3 L9.8,6.3 L9.8,7 L8.4,7 L8.4,7.7 L9.5197263,7.7 L9.5197263,8.4 L8.4,8.4 L8.4,9.8 L7.7,9.8 L7.7,6.3 Z M4.2,6.3164066 L5.34023434,6.3164066 C6.4476342,6.3164066 7,6.9824342 7,7.7902342 L7,8.3302737 C7,9.1478737 6.4464638,9.8 5.33066408,9.8 L4.2,9.8 L4.2,6.3164066 Z M2.1,7 L2.1,7.7 L2.45,7.7 C2.6432,7.7 2.8,7.5432 2.8,7.35 C2.8,7.1568 2.6432,7 2.45,7 L2.1,7 Z M4.9,7.0164066 L4.9,9.1 L5.33066408,9.1 C5.7730638,9.1 6.3,8.9658737 6.3,8.3302737 L6.3,7.7902342 C6.3,7.1504342 5.7784342,7.0164066 5.34023434,7.0164066 L4.9,7.0164066 Z M2.8,11.2 L11.2,11.2 L11.2,12.6 L2.8,12.6 L2.8,11.2 Z" id="Shape"></path>
      </g>
    </g>
  </g>
</svg>
