<?xml version="1.0" encoding="UTF-8"?>
<svg width="13px" height="14px" viewBox="0 0 13 14" version="1.1" xmlns="http://www.w3.org/2000/svg" xmlns:xlink="http://www.w3.org/1999/xlink">
    <!-- Generator: Sketch 54.1 (76490) - https://sketchapp.com -->
    <title>Icon/view</title>
    <desc>Created with Sketch.</desc>
    <g id="V2" stroke="none" stroke-width="1" fill="none" fill-rule="evenodd">
        <g id="V2.2_Historie" transform="translate(-1141.000000, -68.000000)" fill="#95C124" fill-rule="nonzero">
            <g id="Segment/view_aktive" transform="translate(1141.000000, 68.000000)">
                <path d="M1.27272727,0 C0.570818182,0 -3.33066907e-13,0.570818182 -3.33066907e-13,1.27272727 L-3.33066907e-13,11.4545455 C-3.33066907e-13,12.1564545 0.570818182,12.7272727 1.27272727,12.7272727 L3.12464485,12.7272727 C2.91146304,12.4383636 2.77751848,12.2055742 2.71324575,12.0859378 C2.69160939,12.0458469 2.67483523,12.0128451 2.66974432,12.0026633 L2.40749288,11.4545455 L2.66974432,10.9064276 C2.73338068,10.7727913 4.27636364,7.63636364 8.27272727,7.63636364 C8.49290909,7.63636364 8.70418182,7.64834509 8.90909091,7.667436 C9.36918182,7.70816327 9.793,7.79028409 10.1818182,7.90482955 L10.1818182,3.81818182 L6.36363636,0 L1.27272727,0 Z M5.72727273,0.925958791 L9.22727273,4.45454545 L5.72727273,4.45454545 L5.72727273,0.925958791 Z M8.27272727,8.90909091 C5.033,8.90909091 3.81818182,11.4545455 3.81818182,11.4545455 C3.81818182,11.4545455 5.033,14 8.27272727,14 C11.5124545,14 12.7272727,11.4545455 12.7272727,11.4545455 C12.7272727,11.4545455 11.5124545,8.90909091 8.27272727,8.90909091 Z M8.27272727,10.1818182 C8.97527273,10.1818182 9.54545455,10.752 9.54545455,11.4545455 C9.54545455,12.1570909 8.97527273,12.7272727 8.27272727,12.7272727 C7.57018182,12.7272727 7,12.1570909 7,11.4545455 C7,10.752 7.57018182,10.1818182 8.27272727,10.1818182 Z" id="Shape"></path>
            </g>
        </g>
    </g>
</svg>